# xmcd
#
# Track frame offsets:
#	150
#	8914
#	21345
#	27033
#	39664
#	46784
#	59106
#	66543
#	78723
#	84373
#	95857
#	100746
#	117017
#	124458
#	137221
#	143984
#	161751
#	176697
#	191398
#	198686
#	212066
#	214987
#	227499
#
# Disc length: 3168 seconds
#
# Revision: 1
# Processed by: cddbd v1.5.2PL0 Copyright (c) Steve Scherf et al.
# Submitted via: audiograbber 1.83.01
#
DISCID=590c5e17
DTITLE=Yves Menez and L'Idéal Jazz - Idéal Jazz, accordéon gavotte
DYEAR=2012
DGENRE=Celtic
TTITLE0=E Pariz
TTITLE1=Tamm Kentan - Jazz and Jean Le Floc'h
TTITLE2=Tamm Kreiz - Jazz and Jean Le Floc'h
TTITLE3=Tamm Diwezhan - Jazz and Jean Le Floc'h
TTITLE4=Retour à Scrignac
TTITLE5=Tamm Kentan - Jazz and Régis Huiban
TTITLE6=Tamm Kreiz - Jazz and Régis Huiban
TTITLE7=Tamm Diwezhan - Jazz and Régis Huiban
TTITLE8=Menez ha Coateval, me lar dit
TTITLE9=Tamm Kentan - Jazz and Yves Le Gac
TTITLE10=Tamm Kreiz - Jazz and Yves Le Gac
TTITLE11=Tamm Diwezhan - Jazz and Yves Le Gac
TTITLE12=Incroyab' koa !
TTITLE13=Tamm Kentan - Jazz and Yann Le Corre
TTITLE14=Tamm Kreiz - Jazz and Yann Le Corre
TTITLE15=Tamm Diwezhan - Jazz and Yann Le Corre
TTITLE16=Les forçats de la noce
TTITLE17=Tamm Kentan - Jazz and Patrick Lefebvre
TTITLE18=Tamm Kreiz - Jazz and Patrick Lefebvre
TTITLE19=Tamm Diwezhan - Jazz and Patrick Lefebvre
TTITLE20=Ar c'hlas pemp war'n ugent (kan Yves Le Gac)
TTITLE21=Super incroyab' koa !
TTITLE22=Bonus - PDF de commentaires et partitions
EXTD=
EXTT0=
EXTT1=
EXTT2=
EXTT3=
EXTT4=
EXTT5=
EXTT6=
EXTT7=
EXTT8=
EXTT9=
EXTT10=
EXTT11=
EXTT12=
EXTT13=
EXTT14=
EXTT15=
EXTT16=
EXTT17=
EXTT18=
EXTT19=
EXTT20=
EXTT21=
EXTT22=
PLAYORDER=
